<mxfile host="app.diagrams.net" modified="2024-05-28T03:31:02.970Z" agent="Mozilla/5.0 (Windows NT 10.0; Win64; x64) AppleWebKit/537.36 (KHTML, like Gecko) Chrome/124.0.0.0 Safari/537.36" etag="XzcnRrYhgHRCdpYWAG0v" version="24.4.6" type="google" pages="2">
  <diagram name="1" id="FQ09DZRYIcDzGLGnqr8i">
    <mxGraphModel grid="1" page="1" gridSize="10" guides="1" tooltips="1" connect="1" arrows="1" fold="1" pageScale="1" pageWidth="827" pageHeight="1169" math="0" shadow="0">
      <root>
        <mxCell id="0" />
        <mxCell id="1" parent="0" />
        <mxCell id="Tz-0HIOmYIdFmNYr6--X-19" style="edgeStyle=orthogonalEdgeStyle;rounded=0;orthogonalLoop=1;jettySize=auto;html=1;exitX=0;exitY=0.5;exitDx=0;exitDy=0;entryX=0.5;entryY=0;entryDx=0;entryDy=0;" edge="1" parent="1" source="Tz-0HIOmYIdFmNYr6--X-1" target="Tz-0HIOmYIdFmNYr6--X-2">
          <mxGeometry relative="1" as="geometry" />
        </mxCell>
        <mxCell id="Tz-0HIOmYIdFmNYr6--X-20" style="edgeStyle=orthogonalEdgeStyle;rounded=0;orthogonalLoop=1;jettySize=auto;html=1;exitX=0.5;exitY=1;exitDx=0;exitDy=0;entryX=0.5;entryY=0;entryDx=0;entryDy=0;" edge="1" parent="1" source="Tz-0HIOmYIdFmNYr6--X-1" target="Tz-0HIOmYIdFmNYr6--X-3">
          <mxGeometry relative="1" as="geometry" />
        </mxCell>
        <mxCell id="Tz-0HIOmYIdFmNYr6--X-21" style="edgeStyle=orthogonalEdgeStyle;rounded=0;orthogonalLoop=1;jettySize=auto;html=1;exitX=1;exitY=0.5;exitDx=0;exitDy=0;entryX=0.5;entryY=0;entryDx=0;entryDy=0;" edge="1" parent="1" source="Tz-0HIOmYIdFmNYr6--X-1" target="Tz-0HIOmYIdFmNYr6--X-4">
          <mxGeometry relative="1" as="geometry" />
        </mxCell>
        <mxCell id="Tz-0HIOmYIdFmNYr6--X-1" value="Gerencia general" style="rounded=0;whiteSpace=wrap;html=1;" vertex="1" parent="1">
          <mxGeometry x="350" y="150" width="120" height="60" as="geometry" />
        </mxCell>
        <mxCell id="Tz-0HIOmYIdFmNYr6--X-23" style="edgeStyle=orthogonalEdgeStyle;rounded=0;orthogonalLoop=1;jettySize=auto;html=1;exitX=0;exitY=0.5;exitDx=0;exitDy=0;entryX=0.5;entryY=0;entryDx=0;entryDy=0;" edge="1" parent="1" source="Tz-0HIOmYIdFmNYr6--X-2" target="Tz-0HIOmYIdFmNYr6--X-7">
          <mxGeometry relative="1" as="geometry" />
        </mxCell>
        <mxCell id="Tz-0HIOmYIdFmNYr6--X-24" style="edgeStyle=orthogonalEdgeStyle;rounded=0;orthogonalLoop=1;jettySize=auto;html=1;exitX=0.5;exitY=1;exitDx=0;exitDy=0;entryX=0.5;entryY=0;entryDx=0;entryDy=0;" edge="1" parent="1" source="Tz-0HIOmYIdFmNYr6--X-2" target="Tz-0HIOmYIdFmNYr6--X-6">
          <mxGeometry relative="1" as="geometry" />
        </mxCell>
        <mxCell id="Tz-0HIOmYIdFmNYr6--X-25" style="edgeStyle=orthogonalEdgeStyle;rounded=0;orthogonalLoop=1;jettySize=auto;html=1;exitX=1;exitY=0.5;exitDx=0;exitDy=0;entryX=0.5;entryY=0;entryDx=0;entryDy=0;" edge="1" parent="1" source="Tz-0HIOmYIdFmNYr6--X-2" target="Tz-0HIOmYIdFmNYr6--X-9">
          <mxGeometry relative="1" as="geometry" />
        </mxCell>
        <mxCell id="Tz-0HIOmYIdFmNYr6--X-2" value="Producción" style="rounded=0;whiteSpace=wrap;html=1;" vertex="1" parent="1">
          <mxGeometry x="20" y="270" width="120" height="60" as="geometry" />
        </mxCell>
        <mxCell id="KYRoM4-PSn0PPBdfxwol-8" style="edgeStyle=orthogonalEdgeStyle;rounded=0;orthogonalLoop=1;jettySize=auto;html=1;exitX=0.5;exitY=1;exitDx=0;exitDy=0;entryX=0.5;entryY=0;entryDx=0;entryDy=0;" edge="1" parent="1" source="Tz-0HIOmYIdFmNYr6--X-3" target="KYRoM4-PSn0PPBdfxwol-7">
          <mxGeometry relative="1" as="geometry" />
        </mxCell>
        <mxCell id="Tz-0HIOmYIdFmNYr6--X-3" value="Comercialización" style="rounded=0;whiteSpace=wrap;html=1;" vertex="1" parent="1">
          <mxGeometry x="350" y="270" width="120" height="60" as="geometry" />
        </mxCell>
        <mxCell id="KYRoM4-PSn0PPBdfxwol-10" value="" style="edgeStyle=orthogonalEdgeStyle;rounded=0;orthogonalLoop=1;jettySize=auto;html=1;" edge="1" parent="1" source="Tz-0HIOmYIdFmNYr6--X-4" target="KYRoM4-PSn0PPBdfxwol-9">
          <mxGeometry relative="1" as="geometry" />
        </mxCell>
        <mxCell id="Tz-0HIOmYIdFmNYr6--X-4" value="Administración-Finanzas" style="rounded=0;whiteSpace=wrap;html=1;" vertex="1" parent="1">
          <mxGeometry x="580" y="270" width="120" height="60" as="geometry" />
        </mxCell>
        <mxCell id="KYRoM4-PSn0PPBdfxwol-5" style="edgeStyle=orthogonalEdgeStyle;rounded=0;orthogonalLoop=1;jettySize=auto;html=1;exitX=0.5;exitY=1;exitDx=0;exitDy=0;entryX=0.5;entryY=0;entryDx=0;entryDy=0;" edge="1" parent="1" source="Tz-0HIOmYIdFmNYr6--X-6" target="KYRoM4-PSn0PPBdfxwol-2">
          <mxGeometry relative="1" as="geometry" />
        </mxCell>
        <mxCell id="Tz-0HIOmYIdFmNYr6--X-6" value="Uruguay" style="rounded=0;whiteSpace=wrap;html=1;" vertex="1" parent="1">
          <mxGeometry x="20" y="370" width="120" height="60" as="geometry" />
        </mxCell>
        <mxCell id="KYRoM4-PSn0PPBdfxwol-4" style="edgeStyle=orthogonalEdgeStyle;rounded=0;orthogonalLoop=1;jettySize=auto;html=1;exitX=0.5;exitY=1;exitDx=0;exitDy=0;entryX=0.5;entryY=0;entryDx=0;entryDy=0;" edge="1" parent="1" source="Tz-0HIOmYIdFmNYr6--X-7" target="KYRoM4-PSn0PPBdfxwol-1">
          <mxGeometry relative="1" as="geometry" />
        </mxCell>
        <mxCell id="Tz-0HIOmYIdFmNYr6--X-7" value="Argentina" style="rounded=0;whiteSpace=wrap;html=1;" vertex="1" parent="1">
          <mxGeometry x="-120" y="370" width="120" height="60" as="geometry" />
        </mxCell>
        <mxCell id="KYRoM4-PSn0PPBdfxwol-6" style="edgeStyle=orthogonalEdgeStyle;rounded=0;orthogonalLoop=1;jettySize=auto;html=1;exitX=0.5;exitY=1;exitDx=0;exitDy=0;entryX=0.5;entryY=0;entryDx=0;entryDy=0;" edge="1" parent="1" source="Tz-0HIOmYIdFmNYr6--X-9" target="KYRoM4-PSn0PPBdfxwol-3">
          <mxGeometry relative="1" as="geometry" />
        </mxCell>
        <mxCell id="Tz-0HIOmYIdFmNYr6--X-9" value="Brasil" style="rounded=0;whiteSpace=wrap;html=1;" vertex="1" parent="1">
          <mxGeometry x="160" y="370" width="120" height="60" as="geometry" />
        </mxCell>
        <mxCell id="Tz-0HIOmYIdFmNYr6--X-32" value="" style="endArrow=none;html=1;rounded=0;" edge="1" parent="1">
          <mxGeometry width="50" height="50" relative="1" as="geometry">
            <mxPoint x="-280" y="230" as="sourcePoint" />
            <mxPoint x="790" y="230" as="targetPoint" />
          </mxGeometry>
        </mxCell>
        <mxCell id="Tz-0HIOmYIdFmNYr6--X-33" value="" style="endArrow=none;html=1;rounded=0;" edge="1" parent="1">
          <mxGeometry width="50" height="50" relative="1" as="geometry">
            <mxPoint x="-270" y="350" as="sourcePoint" />
            <mxPoint x="790" y="350" as="targetPoint" />
          </mxGeometry>
        </mxCell>
        <mxCell id="Tz-0HIOmYIdFmNYr6--X-34" value="" style="endArrow=none;html=1;rounded=0;" edge="1" parent="1">
          <mxGeometry width="50" height="50" relative="1" as="geometry">
            <mxPoint x="-260" y="440" as="sourcePoint" />
            <mxPoint x="790" y="440" as="targetPoint" />
          </mxGeometry>
        </mxCell>
        <mxCell id="Tz-0HIOmYIdFmNYr6--X-35" value="&lt;font style=&quot;font-size: 20px;&quot;&gt;IV&lt;/font&gt;" style="text;html=1;align=center;verticalAlign=middle;resizable=0;points=[];autosize=1;strokeColor=none;fillColor=none;" vertex="1" parent="1">
          <mxGeometry x="-350" y="160" width="40" height="40" as="geometry" />
        </mxCell>
        <mxCell id="Tz-0HIOmYIdFmNYr6--X-36" value="&lt;font style=&quot;font-size: 20px;&quot;&gt;III&lt;/font&gt;" style="text;html=1;align=center;verticalAlign=middle;resizable=0;points=[];autosize=1;strokeColor=none;fillColor=none;" vertex="1" parent="1">
          <mxGeometry x="-350" y="290" width="40" height="40" as="geometry" />
        </mxCell>
        <mxCell id="Tz-0HIOmYIdFmNYr6--X-37" value="&lt;span style=&quot;font-size: 20px;&quot;&gt;II&lt;/span&gt;" style="text;html=1;align=center;verticalAlign=middle;resizable=0;points=[];autosize=1;strokeColor=none;fillColor=none;" vertex="1" parent="1">
          <mxGeometry x="-345" y="380" width="30" height="40" as="geometry" />
        </mxCell>
        <mxCell id="Tz-0HIOmYIdFmNYr6--X-38" value="&lt;font style=&quot;font-size: 20px;&quot;&gt;I&lt;/font&gt;" style="text;html=1;align=center;verticalAlign=middle;resizable=0;points=[];autosize=1;strokeColor=none;fillColor=none;" vertex="1" parent="1">
          <mxGeometry x="-345" y="470" width="30" height="40" as="geometry" />
        </mxCell>
        <mxCell id="KYRoM4-PSn0PPBdfxwol-1" value="3 Ingenieros agrónomos" style="rounded=0;whiteSpace=wrap;html=1;" vertex="1" parent="1">
          <mxGeometry x="-120" y="460" width="120" height="60" as="geometry" />
        </mxCell>
        <mxCell id="KYRoM4-PSn0PPBdfxwol-2" value="1 Ingeniero&lt;div&gt;&amp;nbsp;agrónomo&lt;/div&gt;" style="rounded=0;whiteSpace=wrap;html=1;" vertex="1" parent="1">
          <mxGeometry x="20" y="460" width="120" height="60" as="geometry" />
        </mxCell>
        <mxCell id="KYRoM4-PSn0PPBdfxwol-3" value="N Ingenieros agrónomos" style="rounded=0;whiteSpace=wrap;html=1;" vertex="1" parent="1">
          <mxGeometry x="160" y="460" width="120" height="60" as="geometry" />
        </mxCell>
        <mxCell id="KYRoM4-PSn0PPBdfxwol-7" value="N Asistentes" style="rounded=0;whiteSpace=wrap;html=1;" vertex="1" parent="1">
          <mxGeometry x="350" y="370" width="120" height="60" as="geometry" />
        </mxCell>
        <mxCell id="KYRoM4-PSn0PPBdfxwol-9" value="N Asistentes" style="rounded=0;whiteSpace=wrap;html=1;" vertex="1" parent="1">
          <mxGeometry x="580" y="370" width="120" height="60" as="geometry" />
        </mxCell>
      </root>
    </mxGraphModel>
  </diagram>
  <diagram id="COwvf5TJjpxPgarO-MN8" name="2">
    <mxGraphModel grid="1" page="1" gridSize="10" guides="1" tooltips="1" connect="1" arrows="1" fold="1" pageScale="1" pageWidth="827" pageHeight="1169" math="0" shadow="0">
      <root>
        <mxCell id="0" />
        <mxCell id="1" parent="0" />
        <mxCell id="wIrLU4P4eJfVCOrdQ-WT-1" value="Gerencia&lt;div&gt;general&lt;/div&gt;" style="rounded=0;whiteSpace=wrap;html=1;" vertex="1" parent="1">
          <mxGeometry x="370" y="40" width="120" height="60" as="geometry" />
        </mxCell>
        <mxCell id="Ak5imzYSAIkzyVOLl6xR-1" value="Argentina" style="rounded=0;whiteSpace=wrap;html=1;" vertex="1" parent="1">
          <mxGeometry x="90" y="130" width="120" height="60" as="geometry" />
        </mxCell>
        <mxCell id="Ak5imzYSAIkzyVOLl6xR-2" value="Uruguay" style="rounded=0;whiteSpace=wrap;html=1;" vertex="1" parent="1">
          <mxGeometry x="280" y="130" width="120" height="60" as="geometry" />
        </mxCell>
        <mxCell id="Ak5imzYSAIkzyVOLl6xR-3" value="Brasil" style="rounded=0;whiteSpace=wrap;html=1;" vertex="1" parent="1">
          <mxGeometry x="470" y="130" width="120" height="60" as="geometry" />
        </mxCell>
        <mxCell id="Ak5imzYSAIkzyVOLl6xR-4" value="" style="rounded=0;whiteSpace=wrap;html=1;" vertex="1" parent="1">
          <mxGeometry x="650" y="130" width="120" height="60" as="geometry" />
        </mxCell>
      </root>
    </mxGraphModel>
  </diagram>
</mxfile>
